# Blender v3.0.0 OBJ File: 'board.blend'
# www.blender.org
mtllib board.mtl
o Grid
v 0.487500 -0.179167 -0.012500
v 0.487500 -0.154167 -0.012500
v 0.487500 -0.154167 0.012500
v 0.487500 -0.179167 0.012500
v 0.487500 0.154167 -0.012500
v 0.487500 0.179167 -0.012500
v 0.487500 0.179167 0.012500
v 0.487500 0.154167 0.012500
v 0.154167 -0.487500 -0.012500
v 0.179167 -0.487500 -0.012500
v 0.179167 -0.487500 0.012500
v 0.154167 -0.487500 0.012500
v 0.179167 -0.179167 -0.012500
v 0.154167 -0.179167 -0.012500
v 0.154167 -0.154167 -0.012500
v 0.179167 -0.154167 -0.012500
v 0.179167 -0.154167 0.012500
v 0.154167 -0.154167 0.012500
v 0.154167 -0.179167 0.012500
v 0.179167 -0.179167 0.012500
v 0.179167 0.154167 -0.012500
v 0.154167 0.154167 -0.012500
v 0.154167 0.179167 -0.012500
v 0.179167 0.179167 -0.012500
v 0.179167 0.179167 0.012500
v 0.154167 0.179167 0.012500
v 0.154167 0.154167 0.012500
v 0.179167 0.154167 0.012500
v 0.179167 0.487500 -0.012500
v 0.154167 0.487500 -0.012500
v 0.154167 0.487500 0.012500
v 0.179167 0.487500 0.012500
v -0.179167 -0.487500 -0.012500
v -0.154167 -0.487500 -0.012500
v -0.154167 -0.487500 0.012500
v -0.179167 -0.487500 0.012500
v -0.154167 -0.179167 -0.012500
v -0.179167 -0.179167 -0.012500
v -0.179167 -0.154167 -0.012500
v -0.154167 -0.154167 -0.012500
v -0.154167 -0.154167 0.012500
v -0.179167 -0.154167 0.012500
v -0.179167 -0.179167 0.012500
v -0.154167 -0.179167 0.012500
v -0.154167 0.154167 -0.012500
v -0.179167 0.154167 -0.012500
v -0.179167 0.179167 -0.012500
v -0.154167 0.179167 -0.012500
v -0.154167 0.179167 0.012500
v -0.179167 0.179167 0.012500
v -0.179167 0.154167 0.012500
v -0.154167 0.154167 0.012500
v -0.154167 0.487500 -0.012500
v -0.179167 0.487500 -0.012500
v -0.179167 0.487500 0.012500
v -0.154167 0.487500 0.012500
v -0.487500 -0.154167 -0.012500
v -0.487500 -0.179167 -0.012500
v -0.487500 -0.179167 0.012500
v -0.487500 -0.154167 0.012500
v -0.487500 0.179167 -0.012500
v -0.487500 0.154167 -0.012500
v -0.487500 0.154167 0.012500
v -0.487500 0.179167 0.012500
v 0.487500 -0.179167 0.012500
v 0.487500 -0.179167 -0.012500
v 0.179167 -0.179167 0.012500
v 0.179167 -0.179167 -0.012500
v 0.179167 -0.487500 -0.012500
v 0.179167 -0.487500 0.012500
v 0.487500 -0.154167 -0.012500
v 0.487500 -0.154167 0.012500
v 0.487500 0.154167 0.012500
v 0.487500 0.154167 -0.012500
v 0.179167 0.154167 0.012500
v 0.179167 0.154167 -0.012500
v 0.179167 -0.154167 0.012500
v 0.179167 -0.154167 -0.012500
v 0.487500 0.179167 -0.012500
v 0.487500 0.179167 0.012500
v 0.179167 0.487500 0.012500
v 0.179167 0.487500 -0.012500
v 0.179167 0.179167 0.012500
v 0.179167 0.179167 -0.012500
v 0.154167 -0.487500 0.012500
v 0.154167 -0.487500 -0.012500
v 0.154167 -0.179167 0.012500
v 0.154167 -0.179167 -0.012500
v -0.154167 -0.179167 0.012500
v -0.154167 -0.179167 -0.012500
v -0.154167 -0.487500 -0.012500
v -0.154167 -0.487500 0.012500
v 0.154167 -0.154167 -0.012500
v 0.154167 -0.154167 0.012500
v 0.154167 0.154167 0.012500
v 0.154167 0.154167 -0.012500
v -0.154167 0.154167 0.012500
v -0.154167 0.154167 -0.012500
v -0.154167 -0.154167 0.012500
v -0.154167 -0.154167 -0.012500
v 0.154167 0.179167 -0.012500
v 0.154167 0.179167 0.012500
v 0.154167 0.487500 -0.012500
v 0.154167 0.487500 0.012500
v -0.154167 0.487500 0.012500
v -0.154167 0.487500 -0.012500
v -0.154167 0.179167 0.012500
v -0.154167 0.179167 -0.012500
v -0.179167 -0.487500 0.012500
v -0.179167 -0.487500 -0.012500
v -0.179167 -0.179167 0.012500
v -0.179167 -0.179167 -0.012500
v -0.487500 -0.179167 -0.012500
v -0.487500 -0.179167 0.012500
v -0.179167 -0.154167 -0.012500
v -0.179167 -0.154167 0.012500
v -0.179167 0.154167 0.012500
v -0.179167 0.154167 -0.012500
v -0.487500 0.154167 -0.012500
v -0.487500 0.154167 0.012500
v -0.487500 -0.154167 0.012500
v -0.487500 -0.154167 -0.012500
v -0.179167 0.179167 -0.012500
v -0.179167 0.179167 0.012500
v -0.179167 0.487500 -0.012500
v -0.179167 0.487500 0.012500
v -0.487500 0.179167 0.012500
v -0.487500 0.179167 -0.012500
vt 0.333333 0.333333
vt 0.333333 0.000000
vt 0.333333 0.333333
vt 0.333333 0.000000
vt 0.333333 0.333333
vt 0.333333 0.000000
vt 0.000000 0.333333
vt 0.333333 0.333333
vt 0.000000 0.333333
vt 0.333333 0.333333
vt 0.000000 0.333333
vt 0.333333 0.333333
vt 0.666667 0.333333
vt 0.666667 0.000000
vt 0.666667 0.333333
vt 0.666667 0.000000
vt 0.666667 0.333333
vt 0.666667 0.000000
vt 0.333333 0.666667
vt 0.333333 0.333333
vt 0.333333 0.333333
vt 0.666667 0.333333
vt 0.666667 0.333333
vt 0.333333 0.333333
vt 0.333333 0.000000
vt 0.333333 0.333333
vt 0.666667 0.000000
vt 0.666667 0.333333
vt 0.666667 0.000000
vt 0.666667 0.666667
vt 0.666667 0.333333
vt 0.666667 0.333333
vt 1.000000 0.333333
vt 0.666667 0.333333
vt 1.000000 0.333333
vt 0.666667 0.333333
vt 0.666667 0.000000
vt 0.666667 0.333333
vt 0.333333 0.333333
vt 0.000000 0.333333
vt 0.333333 0.333333
vt 0.000000 0.333333
vt 0.000000 0.333333
vt 0.666667 0.333333
vt 0.333333 0.333333
vt 0.333333 0.666667
vt 0.333333 0.666667
vt 0.333333 0.666667
vt 0.333333 0.333333
vt 0.000000 0.666667
vt 0.333333 0.666667
vt 0.000000 0.666667
vt 0.333333 0.666667
vt 0.000000 0.666667
vt 0.333333 0.666667
vt 0.333333 0.333333
vt 0.333333 0.666667
vt 0.333333 0.666667
vt 0.666667 0.333333
vt 0.666667 0.666667
vt 0.666667 0.666667
vt 0.666667 0.666667
vt 0.666667 0.333333
vt 0.333333 0.666667
vt 0.333333 1.000000
vt 0.333333 0.666667
vt 0.666667 0.666667
vt 0.666667 0.666667
vt 0.333333 0.333333
vt 1.000000 0.333333
vt 1.000000 0.333333
vt 0.666667 0.333333
vt 1.000000 0.333333
vt 0.666667 0.666667
vt 0.666667 0.666667
vt 0.666667 0.666667
vt 0.666667 1.000000
vt 0.666667 0.666667
vt 1.000000 0.666667
vt 0.666667 0.666667
vt 1.000000 0.666667
vt 1.000000 0.333333
vt 0.666667 0.333333
vt 0.000000 0.666667
vt 0.333333 0.666667
vt 0.000000 0.666667
vt 0.000000 0.666667
vt 0.666667 0.666667
vt 0.333333 1.000000
vt 0.333333 0.666667
vt 0.333333 1.000000
vt 0.333333 1.000000
vt 0.333333 0.666667
vt 0.333333 0.666667
vt 0.333333 1.000000
vt 0.333333 1.000000
vt 0.666667 1.000000
vt 0.666667 0.666667
vt 0.666667 1.000000
vt 0.666667 0.666667
vt 0.666667 1.000000
vt 0.333333 0.666667
vt 1.000000 0.666667
vt 1.000000 0.666667
vt 1.000000 0.666667
vt 0.666667 0.666667
vt 0.666667 1.000000
vt 0.666667 1.000000
vt 0.666667 0.666667
vt 1.000000 0.666667
vt 0.333333 0.000000
vt 0.333333 0.000000
vt 0.666667 0.000000
vt 1.000000 0.333333
vt 0.000000 0.333333
vt 1.000000 0.666667
vt 0.000000 0.666667
vt 0.333333 1.000000
vt 0.666667 1.000000
vt 0.333333 0.000000
vt 1.000000 0.666667
vt 0.666667 1.000000
vt 0.333333 1.000000
vt 0.000000 0.000000
vt 0.000000 0.333333
vt 0.333333 0.000000
vt 0.666667 0.000000
vt 1.000000 0.333333
vt 0.000000 0.666667
vt 0.000000 0.000000
vn 0.0000 -1.0000 0.0000
vn 0.0000 0.0385 -0.9993
vn 1.0000 0.0000 0.0000
vn 0.0000 0.0385 0.9993
vn 0.0000 1.0000 0.0000
vn 0.0000 0.0000 1.0000
vn 0.0000 -0.0385 0.9993
vn -1.0000 0.0000 0.0000
vn 0.0000 0.0000 -1.0000
vn 0.0000 -0.0385 -0.9993
vn 0.0000 0.0312 0.9995
vn 0.0000 0.0269 -0.9996
vn 0.0000 -0.0269 0.9996
vn 0.0000 -0.0312 -0.9995
usemtl None
s off
f 78/1/1 2/2/1 16/3/1
f 72/4/2 17/5/2 3/6/2
f 86/7/3 14/8/3 9/9/3
f 87/10/3 12/11/3 19/12/3
f 84/13/1 6/14/1 24/15/1
f 80/16/4 25/17/4 7/18/4
f 90/19/5 14/8/5 88/20/5
f 94/21/6 27/22/6 95/23/6
f 67/24/5 4/25/5 20/26/5
f 74/27/7 21/28/7 5/29/7
f 98/30/5 22/31/5 96/32/5
f 104/33/8 26/34/8 31/35/8
f 75/36/5 8/37/5 28/38/5
f 68/39/8 10/40/8 13/41/8
f 70/42/8 20/26/8 11/43/8
f 78/1/6 21/28/6 76/44/6
f 93/45/1 40/46/1 100/47/1
f 99/48/1 18/49/1 94/21/1
f 110/50/3 38/51/3 33/52/3
f 111/53/3 36/54/3 43/55/3
f 75/36/6 17/5/6 77/56/6
f 87/10/5 44/57/5 89/58/5
f 101/59/1 48/60/1 108/61/1
f 107/62/1 26/34/1 102/63/1
f 112/64/5 58/65/5 38/51/5
f 116/66/6 51/67/6 117/68/6
f 96/32/6 15/69/6 93/45/6
f 82/70/3 24/15/3 29/71/3
f 83/72/8 32/73/8 25/17/8
f 95/23/5 52/74/5 97/75/5
f 118/76/5 62/77/5 46/78/5
f 126/79/8 50/80/8 55/81/8
f 101/59/3 30/82/3 23/83/3
f 90/19/8 34/84/8 37/85/8
f 92/86/8 44/57/8 35/87/8
f 100/47/6 45/88/6 98/30/6
f 122/89/9 39/90/9 57/91/9
f 116/66/1 60/92/1 42/93/1
f 97/75/6 41/94/6 99/48/6
f 114/95/9 43/55/9 59/96/9
f 128/97/6 47/98/6 61/99/6
f 124/100/1 64/101/1 50/80/1
f 118/76/6 39/90/6 115/102/6
f 106/103/3 48/60/3 53/104/3
f 107/62/8 56/105/8 49/106/8
f 120/107/6 51/67/6 63/108/6
f 123/109/3 54/110/3 47/98/3
f 14/8/9 16/3/9 13/41/9
f 18/49/6 20/26/6 17/5/6
f 22/31/9 24/15/9 21/28/9
f 26/34/6 28/38/6 25/17/6
f 38/51/9 40/46/9 37/85/9
f 42/93/6 44/57/6 41/94/6
f 46/78/9 48/60/9 45/88/9
f 50/80/6 52/74/6 49/106/6
f 67/24/1 66/111/1 65/112/1
f 2/2/9 13/41/9 16/3/9
f 17/5/6 4/25/6 3/6/6
f 70/42/3 68/39/3 67/24/3
f 14/8/9 10/40/9 9/9/9
f 12/11/6 20/26/6 19/12/6
f 75/36/1 74/27/1 73/113/1
f 6/14/9 21/28/9 24/15/9
f 25/17/6 8/37/6 7/18/6
f 77/56/3 76/44/3 75/36/3
f 22/31/9 16/3/9 15/69/9
f 18/49/6 28/38/6 27/22/6
f 72/4/5 78/1/5 77/56/5
f 83/72/3 82/70/3 81/114/3
f 30/82/9 24/15/9 23/83/9
f 26/34/6 32/73/6 31/35/6
f 80/16/5 84/13/5 83/72/5
f 87/10/8 86/7/8 85/115/8
f 89/58/1 88/20/1 87/10/1
f 15/69/9 37/85/9 40/46/9
f 41/94/6 19/12/6 18/49/6
f 92/86/3 90/19/3 89/58/3
f 38/51/9 34/84/9 33/52/9
f 36/54/6 44/57/6 43/55/6
f 95/23/8 93/45/8 94/21/8
f 97/75/1 96/32/1 95/23/1
f 23/83/9 45/88/9 48/60/9
f 49/106/6 27/22/6 26/34/6
f 99/48/3 98/30/3 97/75/3
f 46/78/9 40/46/9 39/90/9
f 42/93/6 52/74/6 51/67/6
f 94/21/5 100/47/5 99/48/5
f 104/33/8 101/59/8 102/63/8
f 107/62/3 106/103/3 105/116/3
f 54/110/9 48/60/9 47/98/9
f 50/80/6 56/105/6 55/81/6
f 102/63/5 108/61/5 107/62/5
f 111/53/8 110/50/8 109/117/8
f 114/95/1 112/64/1 111/53/1
f 39/90/9 58/65/9 57/91/9
f 60/92/6 43/55/6 42/93/6
f 117/68/8 115/102/8 116/66/8
f 120/107/1 118/76/1 117/68/1
f 47/98/9 62/77/9 61/99/9
f 64/101/6 51/67/6 50/80/6
f 116/66/5 122/89/5 121/118/5
f 126/79/8 123/109/8 124/100/8
f 124/100/5 128/97/5 127/119/5
f 66/111/10 13/41/10 1/120/10
f 53/104/5 125/121/5 55/81/5
f 127/119/8 119/122/8 120/107/8
f 121/118/8 113/123/8 114/95/8
f 34/124/1 109/117/1 110/50/1
f 85/115/1 69/125/1 70/42/1
f 71/126/3 65/112/3 66/111/3
f 79/127/3 73/113/3 74/27/3
f 103/128/5 81/114/5 82/70/5
f 78/1/11 71/126/11 2/2/11
f 72/4/1 77/56/1 17/5/1
f 86/7/3 88/20/3 14/8/3
f 87/10/3 85/115/3 12/11/3
f 84/13/12 79/127/12 6/14/12
f 80/16/1 83/72/1 25/17/1
f 90/19/5 37/85/5 14/8/5
f 94/21/3 18/49/3 27/22/3
f 67/24/13 65/112/13 4/25/13
f 74/27/5 76/44/5 21/28/5
f 98/30/5 45/88/5 22/31/5
f 104/33/3 102/63/3 26/34/3
f 75/36/14 73/113/14 8/37/14
f 68/39/8 69/125/8 10/40/8
f 70/42/8 67/24/8 20/26/8
f 78/1/8 16/3/8 21/28/8
f 93/45/1 15/69/1 40/46/1
f 99/48/1 41/94/1 18/49/1
f 110/50/3 112/64/3 38/51/3
f 111/53/3 109/117/3 36/54/3
f 75/36/8 28/38/8 17/5/8
f 87/10/5 19/12/5 44/57/5
f 101/59/1 23/83/1 48/60/1
f 107/62/1 49/106/1 26/34/1
f 112/64/6 113/123/6 58/65/6
f 116/66/3 42/93/3 51/67/3
f 96/32/3 22/31/3 15/69/3
f 82/70/8 84/13/8 24/15/8
f 83/72/6 81/114/6 32/73/6
f 95/23/5 27/22/5 52/74/5
f 118/76/6 119/122/6 62/77/6
f 126/79/3 124/100/3 50/80/3
f 101/59/6 103/128/6 30/82/6
f 90/19/8 91/129/8 34/84/8
f 92/86/8 89/58/8 44/57/8
f 100/47/8 40/46/8 45/88/8
f 122/89/1 115/102/1 39/90/1
f 116/66/6 121/118/6 60/92/6
f 97/75/8 52/74/8 41/94/8
f 114/95/5 111/53/5 43/55/5
f 128/97/1 123/109/1 47/98/1
f 124/100/6 127/119/6 64/101/6
f 118/76/3 46/78/3 39/90/3
f 106/103/8 108/61/8 48/60/8
f 107/62/6 105/116/6 56/105/6
f 120/107/5 117/68/5 51/67/5
f 123/109/6 125/121/6 54/110/6
f 14/8/9 15/69/9 16/3/9
f 18/49/6 19/12/6 20/26/6
f 22/31/9 23/83/9 24/15/9
f 26/34/6 27/22/6 28/38/6
f 38/51/9 39/90/9 40/46/9
f 42/93/6 43/55/6 44/57/6
f 46/78/9 47/98/9 48/60/9
f 50/80/6 51/67/6 52/74/6
f 67/24/1 68/39/1 66/111/1
f 2/2/9 1/120/9 13/41/9
f 17/5/6 20/26/6 4/25/6
f 70/42/3 69/125/3 68/39/3
f 14/8/9 13/41/9 10/40/9
f 12/11/6 11/43/6 20/26/6
f 75/36/1 76/44/1 74/27/1
f 6/14/9 5/29/9 21/28/9
f 25/17/6 28/38/6 8/37/6
f 77/56/3 78/1/3 76/44/3
f 22/31/9 21/28/9 16/3/9
f 18/49/6 17/5/6 28/38/6
f 72/4/5 71/126/5 78/1/5
f 83/72/3 84/13/3 82/70/3
f 30/82/9 29/71/9 24/15/9
f 26/34/6 25/17/6 32/73/6
f 80/16/5 79/127/5 84/13/5
f 87/10/8 88/20/8 86/7/8
f 89/58/1 90/19/1 88/20/1
f 15/69/9 14/8/9 37/85/9
f 41/94/6 44/57/6 19/12/6
f 92/86/3 91/129/3 90/19/3
f 38/51/9 37/85/9 34/84/9
f 36/54/6 35/87/6 44/57/6
f 95/23/8 96/32/8 93/45/8
f 97/75/1 98/30/1 96/32/1
f 23/83/9 22/31/9 45/88/9
f 49/106/6 52/74/6 27/22/6
f 99/48/3 100/47/3 98/30/3
f 46/78/9 45/88/9 40/46/9
f 42/93/6 41/94/6 52/74/6
f 94/21/5 93/45/5 100/47/5
f 104/33/8 103/128/8 101/59/8
f 107/62/3 108/61/3 106/103/3
f 54/110/9 53/104/9 48/60/9
f 50/80/6 49/106/6 56/105/6
f 102/63/5 101/59/5 108/61/5
f 111/53/8 112/64/8 110/50/8
f 114/95/1 113/123/1 112/64/1
f 39/90/9 38/51/9 58/65/9
f 60/92/6 59/96/6 43/55/6
f 117/68/8 118/76/8 115/102/8
f 120/107/1 119/122/1 118/76/1
f 47/98/9 46/78/9 62/77/9
f 64/101/6 63/108/6 51/67/6
f 116/66/5 115/102/5 122/89/5
f 126/79/8 125/121/8 123/109/8
f 124/100/5 123/109/5 128/97/5
f 66/111/5 68/39/5 13/41/5
f 105/116/3 106/103/3 53/104/3
f 53/104/6 54/110/6 125/121/6
f 56/105/6 105/116/6 53/104/6
f 125/121/8 126/79/8 55/81/8
f 55/81/5 56/105/5 53/104/5
f 127/119/8 128/97/8 119/122/8
f 121/118/8 122/89/8 113/123/8
f 34/124/1 35/130/1 109/117/1
f 85/115/1 86/7/1 69/125/1
f 71/126/3 72/4/3 65/112/3
f 79/127/3 80/16/3 73/113/3
f 103/128/5 104/33/5 81/114/5
